<?xml version="1.0" encoding="UTF-8"?>
<svg id="Layer_1" data-name="Layer 1" xmlns="http://www.w3.org/2000/svg" viewBox="0 0 1044.92 1033.41">
  <g id="Bag">
    <path class="cls-1" d="m612.33,1009.71c-48.22,0-94.99-9.31-139.02-27.68-42.53-17.74-80.72-43.14-113.52-75.49-32.8-32.35-58.55-70.02-76.54-111.96-18.62-43.42-28.07-89.55-28.07-137.1.28-3.88,28.67-393.02,39.1-521.96,4.72-58.39.6-95.31-3.69-115.99-.96-4.62.21-9.39,3.21-13.08,3.08-3.78,7.67-5.95,12.59-5.95,1.27.16,135.56,16.38,311.91,17.85,7.32.06,14.76.09,22.12.09C817.1,18.45,946.32.67,947.61.49c4.58,0,8.96,2.02,11.94,5.54,2.91,3.43,4.16,7.93,3.42,12.35-3.56,21.36-9.68,64.71-10.74,115-2.74,130.2,45.01,521.01,45.5,524.94,0,47.38-9.43,93.41-28.01,136.74-17.95,41.85-43.64,79.44-76.37,111.71-32.73,32.28-70.84,57.62-113.28,75.32-43.93,18.33-90.61,27.62-138.72,27.62h-29.02Z"/>
    <path class="cls-4" d="m306.34,1c3.52.43,137.06,16.39,311.96,17.85,7.32.06,14.76.09,22.12.09,175.04,0,303.53-17.44,307.19-17.95,4.48.02,8.69,1.97,11.56,5.36,2.81,3.32,4.02,7.67,3.31,11.94-3.56,21.38-9.69,64.76-10.74,115.07-2.73,129.74,44.65,518.13,45.49,524.96,0,47.35-9.42,93.29-27.96,136.54-17.92,41.79-43.58,79.32-76.26,111.55-32.68,32.23-70.74,57.54-113.12,75.21-43.87,18.3-90.48,27.58-138.52,27.58h-29.02c-48.15,0-94.86-9.3-138.83-27.64-42.47-17.72-80.61-43.08-113.37-75.38-32.75-32.3-58.47-69.92-76.43-111.8-18.59-43.35-28.02-89.4-28.02-136.86.42-5.78,28.69-393.33,39.1-521.96,4.73-58.45.6-95.42-3.7-116.13-.93-4.48.2-9.09,3.11-12.66,2.97-3.65,7.39-5.75,12.14-5.77M947.54,0s-128.43,17.95-307.12,17.95c-7.29,0-14.66-.03-22.11-.09C439.95,16.37,306.4,0,306.4,0c-10.5,0-18.39,9.48-16.29,19.63,4.19,20.19,8.43,57.1,3.68,115.85-10.55,130.44-39.1,522-39.1,522,0,194.8,160.13,352.72,357.65,352.72h29.02c197.09,0,356.87-157.57,356.87-351.95,0,0-48.26-393.21-45.49-524.87,1.04-49.4,6.89-91.87,10.73-114.92,1.61-9.68-5.98-18.46-15.92-18.46h0Z"/>
  </g>
  <path id="Drawstring" class="cls-5" d="m437.99,86.6v43.73c33.13,1.87,70.13,3.46,109.23,4.32v-43.68c-39.19-.87-76.21-2.5-109.23-4.37Zm537.8,8.37c-1.1-12-11.72-20.84-23.74-19.74l-.21.02c-12.09,1.1-23.29,2.13-33.72,3.07v43.87c11.57-1.07,24.08-2.22,37.7-3.46l.21-.02c12.02-1.1,20.86-11.72,19.76-23.74Zm-285.34,39.75c54.18-.59,85.5-1.38,123.37-3.86v-43.78c-38.3,2.55-69.29,3.35-123.37,3.97v43.68Zm-392.76-59.12c-7.77-2.74-21.96-4.98-42.21,2.73-29.79,11.34-63.3,40.81-99.62,87.62C99.35,238.74,50.61,360.46,22.15,499.89c-19.41,95.1-33.16,224.37-7.97,275.79,11.16,22.84,27.9,26.24,36.86,26.24,29.37,0,53.78-34.51,84.26-119.09,20.28-56.26,42.86-134.44,67.11-232.39,37.88-153,68.24-307.83,73.05-332.62,3.84-1.03,6.27-1.07,7.34-1.01l2.18,1.33,4.77.54c.49.05,15.34,1.71,40.71,3.95v-43.85c-16.34-1.47-27.66-2.64-32.78-3.18Zm-133.87,348.94c-22.82,93.44-44.15,169.4-63.39,225.78-24.62,72.1-40.57,96.48-47.8,104.58-3.65-8.68-8.47-29.18-8.4-68.92.09-44.46,6.2-101.12,17.21-159.55,26.15-138.64,74.34-263.38,128.92-333.7,12.39-15.97,23.5-28.58,33.35-38.56-11.9,58.88-33.93,164.04-59.89,270.37Z"/>
  <g id="Scale_7">
    <path class="cls-2" d="m951.5,916.31c-2.76,0-5.44-1.37-7.77-3.95-19.55-21.77-64.37-85.14-58.43-203.08,4.22-83.81,42.87-152,86.16-152,.89,0,1.79.03,2.69.09,21.18,1.37,40.1,18.49,53.28,48.2,13.22,29.8,19.03,68.61,16.37,109.26-3.46,52.78-16.16,99.42-37.75,138.62-17.86,32.42-37.5,51.53-47.62,60.03-2.24,1.89-4.58,2.84-6.93,2.84h0Z"/>
    <path class="cls-3" d="m971.46,557.78c.88,0,1.77.03,2.65.09,20.98,1.36,39.75,18.37,52.85,47.9,13.19,29.73,18.99,68.45,16.33,109.02-3.45,52.71-16.13,99.28-37.69,138.41-17.82,32.35-37.41,51.41-47.51,59.89-2.15,1.81-4.37,2.73-6.61,2.73-2.61,0-5.17-1.31-7.39-3.79-8.6-9.58-25.01-30.69-38.21-64.37-15.91-40.58-22.67-87.13-20.08-138.36,4.21-83.55,42.64-151.52,85.66-151.52m0-1c-43.81,0-82.42,68.46-86.66,152.47-6.01,119.22,40.23,183.03,58.55,203.44,2.46,2.74,5.27,4.12,8.14,4.12,2.42,0,4.9-.98,7.25-2.96,21.27-17.87,77.51-76.25,85.55-199,5.51-84.19-25.91-155.13-70.11-157.99-.91-.06-1.82-.09-2.72-.09h0Z"/>
  </g>
  <g id="Scale_4">
    <path class="cls-2" d="m290.62,932.55c-2.36,0-4.69-.96-6.94-2.86-10.1-8.53-29.69-27.68-47.47-60.15-21.49-39.25-34.08-85.92-37.4-138.71-2.56-40.66,3.35-79.45,16.65-109.22,13.25-29.68,32.22-46.75,53.4-48.07.86-.05,1.72-.08,2.58-.08,43.34,0,81.86,68.28,85.88,152.21,5.64,117.96-39.34,181.21-58.94,202.94-2.32,2.57-5,3.94-7.76,3.94Z"/>
    <path class="cls-3" d="m271.44,573.97c43.07,0,81.37,68.07,85.38,151.74,2.45,51.24-4.42,97.77-20.43,138.31-13.29,33.64-29.75,54.71-38.38,64.27-2.23,2.47-4.78,3.77-7.38,3.77-2.24,0-4.46-.92-6.62-2.74-10.07-8.5-29.61-27.61-47.35-60.01-21.46-39.19-34.02-85.79-37.34-138.5-2.55-40.58,3.34-79.28,16.61-108.98,13.17-29.5,31.99-46.47,52.97-47.77.85-.05,1.7-.08,2.55-.08h0m0-1c-.87,0-1.74.03-2.61.08-44.21,2.75-75.81,73.61-70.51,157.81,7.73,122.77,63.82,181.29,85.05,199.21,2.36,1.99,4.83,2.98,7.26,2.98,2.87,0,5.67-1.37,8.13-4.1,18.38-20.36,64.77-84.07,59.07-203.3-4.02-84.09-42.52-152.69-86.38-152.69h0Z"/>
  </g>
  <g id="Edge_4">
    <path class="cls-6" d="m285.64,918.25c-6.31-5.12-5.57-16.53,1.65-25.42,10.97-13.51,24.35-16.09,32.12-16.29,1.42,7.66,1.73,21.38-9.23,34.88-7.22,8.89-18.23,11.95-24.54,6.83m-10.33,12.72c12.05,9.79,32.31,4.81,45.25-11.11,23.42-28.84,10.69-57.92,10.69-57.92,0,0-30.75-6.58-54.34,22.47-12.94,15.93-13.65,36.78-1.59,46.57h0Z"/>
    <path class="cls-6" d="m249.52,864.02c6.42-4.99,17.36-1.69,24.39,7.35,10.68,13.74,10.17,27.36,8.62,34.97-7.78-.34-21.22-3.15-31.89-16.87-7.03-9.04-7.53-20.46-1.11-25.45m-10.06-12.93c-12.26,9.53-11.99,30.39.61,46.59,22.8,29.33,54.01,23.49,54.01,23.49,0,0,13.35-28.47-9.61-58.01-12.59-16.2-32.74-21.6-45-12.07h0Z"/>
    <path class="cls-6" d="m229.4,814.25c7.55-3.01,17.14,3.2,21.39,13.83,6.45,16.17,2.17,29.11-1.43,35.99-7.38-2.49-19.51-8.92-25.95-25.07-4.24-10.64-1.55-21.74,6-24.75m-6.07-15.22c-14.42,5.75-19.96,25.87-12.36,44.92,13.76,34.51,45.36,37.57,45.36,37.57,0,0,20.74-23.64,6.88-58.4-7.6-19.06-25.45-29.85-39.88-24.1h0Z"/>
    <path class="cls-6" d="m216.92,763.62c7.98-1.54,16.24,6.35,18.41,17.6,3.3,17.09-3.32,29-8.16,35.08-6.79-3.83-17.49-12.42-20.79-29.49-2.17-11.25,2.55-21.65,10.53-23.19m-3.11-16.08c-15.25,2.95-24.45,21.66-20.56,41.81,7.05,36.48,37.51,45.41,37.51,45.41,0,0,24.8-19.33,17.7-56.07-3.89-20.15-19.41-34.09-34.65-31.15h0Z"/>
  </g>
  <g id="Scale_5">
    <path class="cls-2" d="m466.63,1028.57c-6,0-12.01-1.59-17.37-4.59-21.78-12.21-63.68-39.33-99.52-83.78-43.3-53.69-65.25-116.27-65.25-185.98,0-110.35,81.39-200.12,181.44-200.12h1.15c45.28.31,88.51,19.4,121.75,53.75,38.66,39.95,59.95,96.46,58.43,155.05-1.76,67.68-24.11,128.27-66.42,180.08-35.17,43.06-75.79,69.25-96.88,81.02-5.35,2.99-11.35,4.57-17.33,4.57Z"/>
    <path class="cls-3" d="m465.93,554.6h0c.39,0,.76,0,1.14,0,45.14.31,88.25,19.34,121.4,53.59,38.56,39.85,59.81,96.23,58.29,154.69-1.76,67.57-24.07,128.05-66.31,179.78-35.11,43-75.68,69.14-96.73,80.9-5.28,2.95-11.19,4.5-17.09,4.5s-11.84-1.57-17.12-4.53c-21.75-12.19-63.58-39.27-99.38-83.66-43.22-53.6-65.14-116.07-65.14-185.66,0-26.96,4.79-53.11,14.23-77.73,9.12-23.77,22.17-45.12,38.8-63.46,16.62-18.33,35.97-32.71,57.51-42.76,22.3-10.4,45.98-15.67,70.39-15.68m0-1c-100.48,0-181.94,89.83-181.94,200.62,0,162.16,119.28,244.56,165.02,270.19,5.54,3.1,11.57,4.65,17.61,4.65s12.05-1.54,17.58-4.63c44.74-24.98,159.46-104.22,163.55-261.53,2.94-113.15-78.02-208.6-180.68-209.3-.39,0-.76,0-1.15,0h0Z"/>
  </g>
  <g id="Edge_5">
    <path class="cls-6" d="m587.03,906.23c-6.52-4.86-6.25-16.28.6-25.46,10.4-13.95,23.67-17.08,31.42-17.61,1.74,7.6,2.61,21.29-7.78,35.23-6.85,9.18-17.72,12.7-24.23,7.84m-9.79,13.13c12.45,9.28,32.48,3.47,44.75-12.98,22.21-29.78,8.28-58.31,8.28-58.31,0,0-31-5.3-53.36,24.7-12.27,16.45-12.12,37.31.33,46.59h0Z"/>
    <path class="cls-6" d="m552.52,948.03c-6.18-5.28-5.15-16.66,2.29-25.37,11.31-13.23,24.75-15.47,32.52-15.48,1.23,7.69,1.19,21.42-10.11,34.64-7.44,8.71-18.52,11.49-24.7,6.21m-10.64,12.45c11.81,10.09,32.18,5.62,45.51-9.97,24.14-28.24,12.14-57.63,12.14-57.63,0,0-30.58-7.35-54.89,21.1-13.33,15.6-14.57,36.42-2.76,46.51h0Z"/>
    <path class="cls-6" d="m513.61,983.72c-5.46-6.02-2.99-17.18,5.49-24.87,12.9-11.69,26.51-12.2,34.22-11.23.24,7.79-1.54,21.4-14.42,33.07-8.49,7.69-19.83,9.05-25.29,3.02m-12.14,11c10.43,11.51,31.21,9.67,46.41-4.11,27.53-24.95,19.36-55.62,19.36-55.62,0,0-29.4-11.17-57.12,13.95-15.2,13.78-19.08,34.28-8.65,45.78h0Z"/>
    <path class="cls-6" d="m468.39,1012.99c-4.3-6.9.1-17.44,9.82-23.5,14.77-9.21,28.26-7.3,35.67-4.97-1.14,7.71-5.31,20.78-20.07,29.99-9.72,6.06-21.12,5.38-25.42-1.51m-13.9,8.67c8.22,13.18,29,15.05,46.4,4.19,31.52-19.67,28.92-51.31,28.92-51.31,0,0-26.95-16.21-58.69,3.59-17.41,10.86-24.86,30.35-16.64,43.52h0Z"/>
    <path class="cls-6" d="m418.88,988.95c3.2-7.47,14.37-9.89,24.89-5.38,16,6.85,22.15,19.01,24.48,26.42-6.98,3.47-20.09,7.52-36.07.69-10.53-4.51-16.49-14.25-13.3-21.72m-15.06-6.44c-6.11,14.28,4.23,32.39,23.1,40.47,34.16,14.61,58.63-5.61,58.63-5.61,0,0-2.11-31.38-36.51-46.1-18.86-8.07-39.11-3.04-45.22,11.24h0Z"/>
    <path class="cls-6" d="m381.8,949.47c5.79-5.71,17.04-3.72,25.08,4.44,12.22,12.39,13.31,25.98,12.66,33.72-7.77.57-21.44-.64-33.65-13.02-8.04-8.16-9.87-19.43-4.09-25.14m-11.5-11.67c-11.06,10.9-8.34,31.59,6.06,46.2,26.09,26.46,56.39,17,56.39,17,0,0,9.93-29.84-16.35-56.48-14.41-14.61-35.05-17.62-46.11-6.71h0Z"/>
    <path class="cls-6" d="m342.7,910.45c5.67-5.83,16.96-4.07,25.17,3.92,12.47,12.14,13.84,25.7,13.35,33.45-7.76.73-21.45-.2-33.91-12.32-8.21-7.99-10.27-19.22-4.61-25.05m-11.74-11.42c-10.83,11.13-7.69,31.75,7.02,46.06,26.63,25.91,56.73,15.83,56.73,15.83,0,0,9.31-30.04-17.51-56.13-14.71-14.31-35.41-16.89-46.24-5.76h0Z"/>
    <path class="cls-6" d="m317.32,861.06c6.96-4.19,17.43.38,23.34,10.19,8.98,14.91,6.86,28.37,4.42,35.74-7.69-1.26-20.7-5.64-29.67-20.53-5.91-9.81-5.05-21.2,1.91-25.4m-8.45-14.03c-13.3,8.01-15.5,28.76-4.92,46.33,19.17,31.82,50.85,29.72,50.85,29.72,0,0,16.63-26.69-2.68-58.74-10.59-17.58-29.95-25.33-43.26-17.32h0Z"/>
  </g>
  <g id="Scale_1">
    <path class="cls-2" d="m338.53,621.7c-6.52,0-12.83-2.14-18.27-6.19-17.57-13.08-51.07-41.53-78.12-85.1-32.55-52.43-46.54-110.98-41.6-174.02,7.75-98.92,80.15-176.4,164.83-176.4,4.97,0,10,.27,14.97.8,89.33,9.59,153.33,101.29,142.66,204.42-6.7,64.75-32.18,120.64-75.73,166.11-36.05,37.64-75.81,58.57-96.29,67.69-4,1.78-8.19,2.69-12.44,2.69h0Z"/>
    <path class="cls-3" d="m365.37,180.49c4.95,0,9.96.27,14.91.8,89.06,9.56,152.85,101.02,142.21,203.87-6.69,64.64-32.12,120.43-75.59,165.81-35.99,37.58-75.68,58.47-96.14,67.58-3.94,1.75-8.05,2.64-12.24,2.64-6.41,0-12.62-2.1-17.97-6.09-17.54-13.06-50.99-41.46-77.99-84.96-32.49-52.34-46.46-110.79-41.53-173.72,3.75-47.87,22.76-92.33,53.51-125.17,30.67-32.74,70.02-50.77,110.82-50.77m0-1c-84.83,0-157.53,77.29-165.33,176.86-11.48,146.54,82.65,231.81,119.92,259.56,5.59,4.16,12.04,6.28,18.57,6.28,4.25,0,8.54-.9,12.64-2.73,43.03-19.16,156.74-83.58,172.32-234.21,10.69-103.32-53.45-195.34-143.1-204.97-5.04-.54-10.05-.81-15.02-.81h0Z"/>
  </g>
  <g id="Edge_7">
    <path class="cls-6" d="m947.08,905.64c-6.04-5.44-4.71-16.79,2.96-25.3,11.65-12.93,25.15-14.82,32.91-14.62,1.03,7.72.63,21.44-11.01,34.36-7.67,8.51-18.82,11-24.86,5.56m-10.97,12.17c11.54,10.4,32.02,6.47,45.76-8.77,24.87-27.6,13.65-57.29,13.65-57.29,0,0-30.37-8.15-55.42,19.64-13.74,15.24-15.52,36.03-3.99,46.42h0Z"/>
    <path class="cls-6" d="m912.25,849.72c6.3-5.14,17.31-2.09,24.55,6.79,11,13.49,10.8,27.12,9.42,34.76-7.79-.16-21.29-2.66-32.27-16.14-7.24-8.88-8-20.28-1.7-25.41m-10.35-12.7c-12.04,9.81-11.29,30.66,1.68,46.56,23.47,28.8,54.53,22.24,54.53,22.24,0,0,12.7-28.77-10.94-57.77-12.96-15.9-33.23-20.84-45.27-11.03h0Z"/>
    <path class="cls-6" d="m982.54,862.62c-6.81-4.43-7.28-15.85-1.04-25.45,9.49-14.59,22.52-18.57,30.22-19.59,2.22,7.47,3.97,21.08-5.5,35.66-6.24,9.6-16.87,13.81-23.68,9.38m-8.93,13.73c13.02,8.46,32.64,1.38,43.82-15.82,20.25-31.15,4.52-58.72,4.52-58.72,0,0-31.27-3.3-51.67,28.07-11.18,17.2-9.7,38.01,3.32,46.47h0Z"/>
    <path class="cls-6" d="m1007.74,817.78c-7.82-2.2-11.66-12.96-8.56-23.99,4.72-16.75,15.98-24.43,23.03-27.69,4.35,6.47,10.06,18.95,5.35,35.68-3.1,11.02-11.99,18.2-19.82,16m-4.44,15.77c14.95,4.21,31.57-8.39,37.14-28.14,10.07-35.76-13.15-57.41-13.15-57.41,0,0-30.84,6.15-40.98,42.17-5.56,19.75,2.05,39.17,17,43.38h0Z"/>
  </g>
  <g id="Scale_6">
    <path class="cls-2" d="m775.99,1028.57c-6.02,0-12.05-1.59-17.43-4.59-21.86-12.21-63.89-39.33-99.86-83.78-43.44-53.69-65.47-116.27-65.47-185.98,0-110.35,81.67-200.12,182.06-200.12h1.15c45.55.31,89.01,19.48,122.4,53.99,38.64,39.93,59.92,96.35,58.39,154.81-1.77,67.68-24.19,128.27-66.65,180.08-35.28,43.06-76.05,69.25-97.2,81.02-5.37,2.99-11.38,4.57-17.39,4.57Z"/>
    <path class="cls-3" d="m775.29,554.6h0c.39,0,.76,0,1.15,0,45.41.31,88.75,19.43,122.04,53.83,38.54,39.83,59.78,96.13,58.25,154.45-1.76,67.57-24.15,128.05-66.53,179.78-35.23,43-75.93,69.14-97.06,80.9-5.3,2.95-11.23,4.51-17.15,4.51s-11.88-1.57-17.18-4.53c-21.82-12.19-63.8-39.27-99.71-83.66-43.37-53.6-65.36-116.07-65.36-185.66,0-26.96,4.8-53.11,14.28-77.73,9.15-23.77,22.25-45.12,38.93-63.46,16.68-18.33,36.09-32.71,57.71-42.76,22.37-10.4,46.14-15.67,70.63-15.68m0-1c-100.82,0-182.55,89.83-182.55,200.62,0,162.16,119.69,244.56,165.58,270.19,5.56,3.1,11.61,4.65,17.67,4.65s12.09-1.54,17.64-4.63c44.89-24.98,160-104.22,164.11-261.53,2.95-113.15-78.29-208.6-181.29-209.3-.39,0-.77,0-1.16,0h0Z"/>
  </g>
  <g id="Scale_3">
    <path class="cls-2" d="m897.68,621.7c-4.25,0-8.44-.9-12.44-2.69-20.49-9.12-60.24-30.05-96.29-67.69-43.55-45.47-69.03-101.36-75.73-166.11-10.67-103.12,53.33-194.83,142.66-204.42,4.96-.53,10-.8,14.97-.8,84.68,0,157.08,77.48,164.83,176.4,4.94,63.04-9.06,121.59-41.6,174.02-27.05,43.57-60.55,72.02-78.12,85.1-5.43,4.05-11.75,6.19-18.27,6.19Z"/>
    <path class="cls-3" d="m870.85,180.49c40.79,0,80.15,18.03,110.81,50.78,30.76,32.84,49.76,77.29,53.51,125.16,4.93,62.94-9.04,121.38-41.53,173.72-27,43.5-60.46,71.9-77.99,84.96-5.35,3.98-11.56,6.09-17.97,6.09-4.18,0-8.3-.89-12.24-2.64-20.45-9.11-60.14-30-96.14-67.58-43.47-45.39-68.91-101.18-75.59-165.81-10.64-102.85,53.16-194.31,142.21-203.87,4.94-.53,9.96-.8,14.92-.8h0m0-1c-4.97,0-9.98.27-15.02.81-89.65,9.63-153.79,101.65-143.1,204.97,15.58,150.63,129.29,215.04,172.32,234.21,4.1,1.83,8.39,2.73,12.64,2.73,6.53,0,12.98-2.13,18.57-6.28,37.28-27.76,131.41-113.02,119.92-259.56-7.8-99.57-80.5-176.87-165.33-176.86h0Z"/>
  </g>
  <g id="Edge_3">
    <path class="cls-6" d="m992.11,491.46c-7.38-3.4-9.49-14.63-4.69-25.03,7.28-15.81,19.61-21.62,27.08-23.74,3.28,7.07,6.97,20.29-.31,36.08-4.79,10.4-14.7,16.1-22.08,12.69m-6.86,14.88c14.1,6.5,32.5-3.34,41.09-21.97,15.55-33.74-3.99-58.76-3.99-58.76,0,0-31.42,1.24-47.08,35.22-8.59,18.63-4.12,39.01,9.99,45.51h0Z"/>
    <path class="cls-6" d="m963.3,535.54c-6.64-4.69-6.66-16.12-.05-25.47,10.04-14.21,23.22-17.68,30.96-18.4,1.93,7.55,3.15,21.22-6.88,35.42-6.61,9.35-17.39,13.15-24.03,8.46m-9.45,13.38c12.68,8.96,32.56,2.64,44.4-14.11,21.44-30.34,6.79-58.5,6.79-58.5,0,0-31.12-4.51-52.72,26.05-11.84,16.76-11.16,37.61,1.52,46.57h0Z"/>
    <path class="cls-6" d="m929.56,574.67c-5.95-5.54-4.44-16.86,3.36-25.25,11.86-12.74,25.38-14.41,33.14-14.1.91,7.74.28,21.45-11.56,34.18-7.8,8.38-18.99,10.7-24.94,5.16m-11.16,11.99c11.37,10.58,31.92,6.98,45.89-8.05,25.31-27.2,14.56-57.07,14.56-57.07,0,0-30.24-8.63-55.73,18.76-13.98,15.02-16.09,35.78-4.72,46.35h0Z"/>
    <path class="cls-6" d="m886.22,603.5c-4.24-6.94.27-17.44,10.04-23.41,14.85-9.07,28.33-7.04,35.72-4.64-1.21,7.7-5.51,20.73-20.35,29.8-9.77,5.97-21.17,5.19-25.41-1.75m-13.98,8.54c8.1,13.25,28.85,15.32,46.36,4.63,31.7-19.37,29.4-51.03,29.4-51.03,0,0-26.79-16.47-58.72,3.04-17.51,10.7-25.14,30.11-17.05,43.36h0Z"/>
    <path class="cls-6" d="m835.86,577.85c2.72-7.66,13.72-10.77,24.51-6.94,16.4,5.83,23.3,17.58,26.09,24.83-6.74,3.9-19.58,8.77-35.96,2.95-10.79-3.83-17.36-13.19-14.64-20.84m-15.44-5.49c-5.2,14.63,6.26,32.07,25.59,38.94,35.01,12.44,58.16-9.28,58.16-9.28,0,0-4.07-31.18-39.33-43.71-19.33-6.87-39.22-.58-44.42,14.06h0Z"/>
    <path class="cls-6" d="m800.63,537.23c5.8-5.7,17.04-3.69,25.07,4.48,12.2,12.41,13.27,26,12.6,33.74-7.77.56-21.44-.67-33.63-13.07-8.03-8.17-9.84-19.45-4.05-25.15m-11.48-11.68c-11.08,10.89-8.4,31.57,5.99,46.21,26.04,26.5,56.36,17.09,56.36,17.09,0,0,9.97-29.82-16.25-56.51-14.38-14.63-35.02-17.67-46.1-6.79h0Z"/>
    <path class="cls-6" d="m766.47,495.38c6.56-4.8,17.4-1.18,24.16,8.06,10.27,14.05,9.36,27.64,7.59,35.21-7.77-.57-21.12-3.77-31.38-17.8-6.76-9.24-6.92-20.67-.36-25.47m-9.67-13.22c-12.53,9.17-12.88,30.03-.76,46.59,21.93,29.99,53.3,25.07,53.3,25.07,0,0,14.18-28.07-7.9-58.27-12.11-16.56-32.09-22.56-44.63-13.39h0Z"/>
  </g>
  <g id="Edge_1">
    <path class="cls-6" d="m421.99,549.05c-5.96-5.52-4.49-16.85,3.29-25.26,11.82-12.77,25.34-14.48,33.11-14.18.93,7.74.34,21.45-11.47,34.21-7.78,8.4-18.96,10.75-24.93,5.23m-11.13,12.02c11.4,10.55,31.93,6.89,45.87-8.16,25.24-27.26,14.41-57.11,14.41-57.11,0,0-30.26-8.55-55.68,18.9-13.94,15.06-16,35.82-4.6,46.37h0Z"/>
    <path class="cls-6" d="m381.77,586.42c-5.21-6.23-2.31-17.29,6.47-24.63,13.35-11.17,26.98-11.14,34.64-9.86-.06,7.79-2.39,21.32-15.72,32.47-8.78,7.35-20.17,8.25-25.39,2.02m-12.57,10.51c9.96,11.91,30.8,10.9,46.54-2.27,28.5-23.84,21.55-54.81,21.55-54.81,0,0-28.93-12.33-57.63,11.68-15.74,13.16-20.42,33.49-10.46,45.4h0Z"/>
    <path class="cls-6" d="m330.43,601.49c-2.74-7.65,3.79-17.02,14.57-20.89,16.38-5.88,29.16-1.15,35.91,2.69-2.75,7.29-9.6,19.19-25.96,25.06-10.78,3.87-21.78.79-24.53-6.86m-15.42,5.53c5.24,14.62,25.15,20.85,44.47,13.92,34.97-12.55,39.13-44.02,39.13-44.02,0,0-22.9-21.55-58.12-8.92-19.31,6.93-30.72,24.4-25.48,39.01h0Z"/>
    <path class="cls-6" d="m287.59,570.76c4.9-6.49,16.32-6.15,25.46.75,13.89,10.49,16.94,23.77,17.42,31.52-7.61,1.7-21.31,2.48-35.19-7.99-9.14-6.9-12.59-17.79-7.7-24.28m-13.08-9.87c-9.36,12.39-3.66,32.46,12.71,44.83,29.65,22.38,58.26,8.62,58.26,8.62,0,0,5.48-30.97-24.38-53.51-16.38-12.36-37.24-12.33-46.59.06h0Z"/>
    <path class="cls-6" d="m255.44,526.56c6.28-5.16,17.31-2.15,24.57,6.7,11.04,13.45,10.9,27.08,9.54,34.73-7.79-.14-21.3-2.58-32.33-16.02-7.27-8.85-8.07-20.25-1.79-25.41m-10.4-12.66c-12,9.85-11.18,30.7,1.84,46.56,23.58,28.71,54.61,22.05,54.61,22.05,0,0,12.59-28.82-11.15-57.73-13.02-15.86-33.31-20.72-45.31-10.87h0Z"/>
    <path class="cls-6" d="m229.24,479.35c7.01-4.12,17.43.57,23.23,10.44,8.82,15.01,6.55,28.44,4.02,35.79-7.67-1.35-20.63-5.87-29.44-20.86-5.8-9.88-4.82-21.26,2.19-25.38m-8.3-14.13c-13.39,7.87-15.82,28.58-5.43,46.28,18.82,32.03,50.52,30.28,50.52,30.28,0,0,16.93-26.5-2.03-58.77-10.39-17.69-29.67-25.66-43.06-17.79h0Z"/>
    <path class="cls-6" d="m219.29,425.62c7.97-1.58,16.27,6.27,18.5,17.5,3.39,17.07-3.17,29.01-7.98,35.12-6.8-3.8-17.56-12.33-20.94-29.38-2.23-11.23,2.44-21.66,10.41-23.24m-3.19-16.07c-15.23,3.02-24.34,21.79-20.35,41.92,7.23,36.44,37.74,45.21,37.74,45.21,0,0,24.7-19.46,17.42-56.16-4-20.13-19.58-33.99-34.81-30.97h0Z"/>
  </g>
  <g id="Scale_2">
    <path class="cls-2" d="m619.58,650.25c-6.3,0-12.59-1.59-18.21-4.6-22.82-12.21-66.71-39.33-104.26-83.78-45.35-53.69-68.35-116.26-68.35-185.97,0-110.35,85.28-200.12,190.09-200.12h1.2c49.11.32,95.59,20.59,130.86,57.08,38.35,39.67,59.46,94.97,57.91,151.71-1.84,67.68-25.25,128.26-69.58,180.08-36.84,43.07-79.4,69.25-101.49,81.03-5.61,2.99-11.9,4.57-18.18,4.57Z"/>
    <path class="cls-3" d="m618.85,176.28h0c.4,0,.79,0,1.2,0,48.98.32,95.32,20.54,130.5,56.92,18.77,19.42,33.36,42.27,43.37,67.93,10.34,26.52,15.19,54.59,14.4,83.43-1.84,67.56-25.21,128.04-69.46,179.77-36.79,43-79.28,69.15-101.34,80.91-5.54,2.95-11.74,4.51-17.94,4.51s-12.43-1.57-17.98-4.54c-22.79-12.19-66.62-39.27-104.11-83.66-45.28-53.6-68.23-116.06-68.23-185.65,0-26.95,5.02-53.1,14.91-77.72,9.55-23.77,23.23-45.12,40.64-63.45,17.41-18.33,37.69-32.72,60.26-42.77,23.37-10.4,48.19-15.68,73.78-15.68m0-1c-105.26,0-190.59,89.83-190.59,200.62,0,162.16,124.96,244.56,172.87,270.19,5.8,3.1,12.12,4.65,18.45,4.65s12.62-1.54,18.41-4.63c46.87-24.98,167.04-104.22,171.33-261.53,3.08-113.15-81.74-208.6-189.27-209.3-.41,0-.8,0-1.21,0h0Z"/>
  </g>
  <g id="Edge_2">
    <path class="cls-6" d="m736.24,534.87c-5.75-5.74-3.85-17.01,4.25-25.11,12.3-12.31,25.87-13.51,33.62-12.92.63,7.77-.47,21.45-12.76,33.75-8.09,8.1-19.36,10.02-25.11,4.28m-11.58,11.59c10.99,10.97,31.65,8.1,46.15-6.42,26.25-26.29,16.57-56.52,16.57-56.52,0,0-29.92-9.7-56.36,16.78-14.5,14.52-17.35,35.18-6.36,46.16h0Z"/>
    <path class="cls-6" d="m702.98,575.9c-5.69-5.8-3.67-17.05,4.5-25.07,12.42-12.19,26.01-13.25,33.75-12.58.55,7.77-.69,21.44-13.1,33.62-8.17,8.02-19.46,9.83-25.15,4.03m-11.69,11.47c10.88,11.08,31.57,8.42,46.21-5.95,26.52-26.02,17.13-56.35,17.13-56.35,0,0-29.82-10-56.52,16.21-14.64,14.37-17.7,35.01-6.82,46.09h0Z"/>
    <path class="cls-6" d="m663.19,608.05c-4.45-6.8-.29-17.44,9.29-23.71,14.56-9.54,28.09-7.93,35.55-5.77-.97,7.73-4.85,20.9-19.39,30.43-9.58,6.28-21,5.85-25.45-.95m-13.7,8.98c8.51,12.99,29.32,14.4,46.49,3.16,31.08-20.36,27.77-51.94,27.77-51.94,0,0-27.3-15.61-58.6,4.9-17.16,11.25-24.18,30.89-15.66,43.88h0Z"/>
    <path class="cls-6" d="m612.53,631.12c-2.51-7.73,4.3-16.9,15.19-20.44,16.55-5.38,29.19-.28,35.82,3.77-2.96,7.21-10.16,18.89-26.7,24.27-10.89,3.54-21.8.14-24.31-7.59m-15.58,5.07c4.8,14.77,24.52,21.59,44.03,15.25,35.33-11.49,40.43-42.83,40.43-42.83,0,0-22.25-22.23-57.83-10.65-19.51,6.35-31.44,23.47-26.63,38.23h0Z"/>
    <path class="cls-6" d="m564.72,605c3.56-7.31,14.83-9.17,25.13-4.15,15.64,7.63,21.19,20.07,23.15,27.59-7.14,3.12-20.44,6.53-36.06-1.09-10.3-5.02-15.77-15.04-12.21-22.35m-14.73-7.18c-6.8,13.96,2.63,32.56,21.08,41.55,33.4,16.28,58.83-2.72,58.83-2.72,0,0-.56-31.44-34.19-47.84-18.44-8.99-38.91-4.96-45.72,9h0Z"/>
    <path class="cls-6" d="m528.81,566.78c5.79-5.71,17.04-3.72,25.08,4.44,12.22,12.39,13.31,25.98,12.66,33.72-7.77.57-21.44-.64-33.65-13.02-8.04-8.16-9.87-19.43-4.09-25.14m-11.5-11.67c-11.06,10.9-8.34,31.59,6.06,46.2,26.09,26.46,56.39,17,56.39,17,0,0,9.93-29.84-16.35-56.48-14.41-14.61-35.05-17.62-46.11-6.71h0Z"/>
    <path class="cls-6" d="m487.97,531.25c5.67-5.83,16.96-4.07,25.17,3.92,12.47,12.14,13.84,25.7,13.35,33.45-7.76.73-21.45-.2-33.91-12.32-8.21-7.99-10.27-19.22-4.61-25.05m-11.74-11.42c-10.83,11.13-7.69,31.75,7.02,46.06,26.63,25.91,56.73,15.83,56.73,15.83,0,0,9.31-30.04-17.51-56.13-14.71-14.31-35.41-16.89-46.24-5.76h0Z"/>
    <path class="cls-6" d="m464.33,483.61c6.96-4.19,17.43.38,23.34,10.19,8.98,14.91,6.86,28.37,4.42,35.74-7.69-1.26-20.7-5.64-29.67-20.53-5.91-9.81-5.05-21.2,1.91-25.4m-8.45-14.03c-13.3,8.01-15.5,28.76-4.92,46.33,19.17,31.82,50.85,29.72,50.85,29.72,0,0,16.63-26.69-2.68-58.74-10.59-17.58-29.95-25.33-43.26-17.32h0Z"/>
  </g>
  <g id="Edge_6">
    <path class="cls-6" d="m896.16,906.23c-6.52-4.86-6.25-16.28.6-25.46,10.4-13.95,23.67-17.08,31.42-17.61,1.74,7.6,2.61,21.29-7.78,35.23-6.85,9.18-17.72,12.7-24.23,7.84m-9.79,13.13c12.45,9.28,32.48,3.47,44.75-12.98,22.21-29.78,8.28-58.31,8.28-58.31,0,0-31-5.3-53.36,24.7-12.27,16.45-12.12,37.31.33,46.59h0Z"/>
    <path class="cls-6" d="m861.64,948.03c-6.18-5.28-5.15-16.66,2.29-25.37,11.31-13.23,24.75-15.47,32.52-15.48,1.23,7.69,1.19,21.42-10.11,34.64-7.44,8.71-18.52,11.49-24.7,6.21m-10.64,12.45c11.81,10.09,32.18,5.62,45.51-9.97,24.14-28.24,12.14-57.63,12.14-57.63,0,0-30.58-7.35-54.89,21.1-13.33,15.6-14.57,36.42-2.76,46.51h0Z"/>
    <path class="cls-6" d="m822.73,983.72c-5.46-6.02-2.99-17.18,5.49-24.87,12.9-11.69,26.51-12.2,34.22-11.23.24,7.79-1.54,21.4-14.42,33.07-8.49,7.69-19.83,9.05-25.29,3.02m-12.14,11c10.43,11.51,31.21,9.67,46.41-4.11,27.53-24.95,19.36-55.62,19.36-55.62,0,0-29.4-11.17-57.12,13.95-15.2,13.78-19.08,34.28-8.65,45.78h0Z"/>
    <path class="cls-6" d="m777.52,1012.99c-4.3-6.9.1-17.44,9.82-23.5,14.77-9.21,28.26-7.3,35.67-4.97-1.14,7.71-5.31,20.78-20.07,29.99-9.72,6.06-21.12,5.38-25.42-1.51m-13.9,8.67c8.22,13.18,29,15.05,46.4,4.19,31.52-19.67,28.92-51.31,28.92-51.31,0,0-26.95-16.21-58.69,3.59-17.41,10.86-24.86,30.35-16.64,43.52h0Z"/>
    <path class="cls-6" d="m728.01,988.95c3.2-7.47,14.37-9.89,24.89-5.38,16,6.85,22.15,19.01,24.48,26.42-6.98,3.47-20.09,7.52-36.07.69-10.53-4.51-16.49-14.25-13.3-21.72m-15.06-6.44c-6.11,14.28,4.23,32.39,23.1,40.47,34.16,14.61,58.63-5.61,58.63-5.61,0,0-2.11-31.38-36.51-46.1-18.86-8.07-39.11-3.04-45.22,11.24h0Z"/>
    <path class="cls-6" d="m690.92,949.47c5.79-5.71,17.04-3.72,25.08,4.44,12.22,12.39,13.31,25.98,12.66,33.72-7.77.57-21.44-.64-33.65-13.02-8.04-8.16-9.87-19.43-4.09-25.14m-11.5-11.67c-11.06,10.9-8.34,31.59,6.06,46.2,26.09,26.46,56.39,17,56.39,17,0,0,9.93-29.84-16.35-56.48-14.41-14.61-35.05-17.62-46.11-6.71h0Z"/>
    <path class="cls-6" d="m651.83,910.45c5.67-5.83,16.96-4.07,25.17,3.92,12.47,12.14,13.84,25.7,13.35,33.45-7.76.73-21.45-.2-33.91-12.32-8.21-7.99-10.27-19.22-4.61-25.05m-11.74-11.42c-10.83,11.13-7.69,31.75,7.02,46.06,26.63,25.91,56.73,15.83,56.73,15.83,0,0,9.31-30.04-17.51-56.13-14.71-14.31-35.41-16.89-46.24-5.76h0Z"/>
    <path class="cls-6" d="m626.44,861.06c6.96-4.19,17.43.38,23.34,10.19,8.98,14.91,6.86,28.37,4.42,35.74-7.69-1.26-20.7-5.64-29.67-20.53-5.91-9.81-5.05-21.2,1.91-25.4m-8.45-14.03c-13.3,8.01-15.5,28.76-4.92,46.33,19.17,31.82,50.85,29.72,50.85,29.72,0,0,16.63-26.69-2.68-58.74-10.59-17.58-29.95-25.33-43.26-17.32h0Z"/>
  </g>
</svg>